<?xml version="1.0" encoding="utf-8"?><svg viewBox="0 0 100 100" xmlns="http://www.w3.org/2000/svg" width="200px" height="200px" xmlns:xlink="http://www.w3.org/1999/xlink" style="width:100%;height:100%;background-size:initial;background-repeat-y:initial;background-repeat-x:initial;background-position-y:initial;background-position-x:initial;background-origin:initial;background-color:initial;background-clip:initial;background-attachment:initial;animation-play-state:paused" ><g class="ldl-scale" style="transform-origin:50% 50%;transform:rotate(0deg) scale(0.8, 0.8);animation-play-state:paused" ><g style="animation-play-state:paused" ><ellipse fill="#333" ry="9.5" rx="14.3" cy="74.1" cx="43.6" transform="rotate(-30 43.573 74.065)" style="fill:rgb(255, 255, 255);animation-play-state:paused" ></ellipse></g>
<g style="animation-play-state:paused" ><path fill="#333" d="M56.8 15c0 .9 0 1.8.4 2.6.2.4.2.8.5 1.2.2.4.5.8.7 1.1.3.4.5.7.8 1.1.2.4.5.7.8 1 .6.7 1.2 1.3 1.6 2.1 1.9 3.1 4.3 6.3 6.2 10 .5.9.9 1.9 1.3 2.8.2.5.3 1 .5 1.5s.4 1 .5 1.5c.3 1 .5 2 .7 3.1.2 1 .3 2 .3 3.1.1 2.1-.2 4.2-.8 6.2-.3 1-.7 1.9-1 2.8-.4.9-.6 1.8-1.2 2.6-.2.3-.6.4-.9.2-.2-.1-.3-.3-.3-.5-.1-1.1.3-2 .5-2.9.3-.9.5-1.9.7-2.8.4-1.8.4-3.6.2-5.4-.6-3.6-2.1-6.9-4.3-9.8-2.1-3-4.8-5.7-7.2-9-.3-.4-.6-.9-.8-1.3l-.6-1.5c-.2-.5-.3-1-.5-1.6-.1-.5-.3-1-.4-1.6-.3-2.2-.5-4.3-.7-6.4-.1-.8.5-1.6 1.3-1.6.8-.1 1.6.5 1.6 1.3v.1l.1.1z" style="fill:rgb(255, 255, 255);animation-play-state:paused" ></path></g>
<path d="M55.3 68.7V15" stroke-miterlimit="10" stroke-linejoin="round" stroke-linecap="round" stroke-width="3" stroke="#333" fill="none" style="stroke:rgb(255, 255, 255);animation-play-state:paused" ></path>
<metadata xmlns:d="https://loading.io/stock/" style="animation-play-state:paused" ><d:name style="animation-play-state:paused" >note</d:name>


<d:tags style="animation-play-state:paused" >note,eighth,quaver,music</d:tags>


<d:license style="animation-play-state:paused" >by</d:license>


<d:slug style="animation-play-state:paused" >kr7qq9</d:slug></metadata></g><!-- generated by https://loading.io/ --></svg>